<svg xmlns="http://www.w3.org/2000/svg" viewBox="0 0 232 26" width="232px" 
height="26px" version="1.1"><!-- Generator: Sketch 3.5.1 (25234) - 
http://www.bohemiancoding.com/sketch -->     
<title>Arbetsformedlingen_Namnlogo_hori_NEG</title>     <desc>Created with 
Sketch.</desc>     <defs><path id="path-1" d="M 0.0490141 0.727212 L 231.56 0.727212 L 231.56 26 L 0.0490141 26 L 0.0490141 0.727212 Z" 
/>     </defs>     <g id="Startsida-AS-SWITCH" fill="none" fill-rule="evenodd" 
stroke="none" stroke-width="1" xmlns:sketch="http://www.bohemiancoding.com/sketch/ns" 
sketch:type="MSPage"><g id="Desktop-HD" transform="translate(-150 -2264)" 
sketch:type="MSArtboardGroup"><g id="Arbetsformedlingen_Namnlogo_hori_NEG" 
transform="translate(150 2264)" sketch:type="MSLayerGroup"><path id="Fill-1" 
fill="#ffffff" d="M 88.2768 8.97236 L 88.2768 8.54533 C 89.9114 7.5857 91.1025 6.01073 91.9202 3.74321 L 92.5737 3.74321 L 92.5737 8.30582 L 94.4657 8.30582 L 94.4657 8.97236 L 92.5737 8.97236 L 92.5737 16.4202 C 92.5737 17.353 92.7845 17.8068 93.2975 17.8068 C 93.8587 17.8068 94.2328 17.3255 94.442 16.3107 L 94.4657 16.1003 L 95.1429 16.2319 C 94.7695 18.1283 93.7648 19.0604 92.1073 19.0604 C 90.5421 19.0604 89.7954 18.2339 89.7954 16.4202 L 89.7954 8.97236 L 88.2768 8.97236" 
sketch:type="MSShapeGroup" />                 <path id="Fill-2" fill="#ffffff" 
d="M 103.263 11.1627 L 102.623 11.1627 C 102.393 9.74685 101.215 8.75885 99.7559 8.75885 C 98.6809 8.75885 97.9644 9.31982 97.9644 10.1487 C 97.9644 10.8144 98.4244 11.3872 99.4234 11.6551 C 101.267 12.1625 102.034 12.4272 102.649 12.7747 C 103.493 13.2561 103.979 14.0699 103.979 15.1919 C 103.979 17.4342 102.393 19.0604 100.191 19.0604 C 99.2952 19.0344 98.4513 18.7941 97.7341 18.3418 C 97.4776 18.1543 97.4008 18.1007 97.2219 18.1007 C 96.9907 18.1007 96.8633 18.3418 96.8371 18.7941 L 96.1722 18.7941 L 96.1722 14.8988 L 96.8371 14.8988 C 97.0168 16.926 98.4244 18.3678 100.268 18.3678 C 101.471 18.3678 102.393 17.6469 102.393 16.7385 C 102.393 15.8041 101.958 15.4598 99.9601 14.8988 C 99.1416 14.6861 98.3223 14.3922 97.9391 14.2039 C 96.9654 13.7508 96.3004 12.6289 96.3004 11.4818 C 96.3004 9.5617 97.7594 8.03873 99.577 8.03873 C 100.243 8.03873 100.729 8.17267 101.651 8.5737 C 101.984 8.70764 102.086 8.75885 102.239 8.75885 C 102.496 8.75885 102.573 8.5997 102.623 8.03873 L 103.263 8.03873 L 103.263 11.1627" sketch:type="MSShapeGroup" />                 <path id="Fill-3" fill="#ffffff" 
d="M 118.511 9.42776 C 118.162 9.00073 117.624 8.75885 116.994 8.75885 C 116.059 8.75885 115.288 9.34818 115.056 10.2826 C 114.892 10.9492 114.822 11.9088 114.822 13.5633 C 114.822 16.1523 114.985 17.1127 115.499 17.7013 C 115.873 18.1283 116.41 18.3678 116.994 18.3678 C 117.974 18.3678 118.722 17.7801 118.955 16.8464 C 119.119 16.1807 119.188 15.1919 119.188 13.5633 C 119.188 10.9492 119.025 10.0147 118.511 9.42776 L 118.511 9.42776 Z M 116.994 19.0604 C 114.098 19.0344 111.832 16.6589 111.832 13.5633 C 111.832 10.4678 114.098 8.03873 116.994 8.03873 C 119.936 8.03873 122.178 10.4678 122.178 13.5633 C 122.178 16.6589 119.936 19.0604 116.994 19.0604 L 116.994 19.0604 Z" 
sketch:type="MSShapeGroup" />                 <path id="Fill-4" fill="#ffffff" 
d="M 119.143 3.2043 C 120.043 3.2043 120.749 3.89764 120.749 4.75406 C 120.725 5.61127 120.043 6.30461 119.143 6.30461 C 118.241 6.30461 117.535 5.61127 117.535 4.75406 C 117.535 3.89764 118.241 3.2043 119.143 3.2043" 
sketch:type="MSShapeGroup" />                 <path id="Fill-5" fill="#ffffff" 
d="M 114.821 3.2043 C 115.715 3.2043 116.44 3.89764 116.44 4.75406 C 116.44 5.61127 115.715 6.30461 114.821 6.30461 C 113.951 6.30461 113.226 5.61127 113.226 4.75406 C 113.226 3.89764 113.951 3.2043 114.821 3.2043" 
sketch:type="MSShapeGroup" />                 <path id="Fill-6" fill="#ffffff" 
d="M 134.103 8.97236 L 132.585 8.97236 L 132.585 8.30582 L 133.285 8.30582 C 135.013 8.30582 135.737 8.25224 136.858 8.01273 L 136.858 9.90679 C 137.746 8.67927 138.89 8.03873 140.175 8.03873 C 141.576 8.03873 142.65 8.81242 143.046 10.1203 C 143.864 8.70764 144.962 8.03873 146.363 8.03873 C 148.442 8.03873 149.236 9.02673 149.236 11.6157 L 149.236 18.1283 L 150.776 18.1283 L 150.776 18.7941 L 145.242 18.7941 L 145.242 18.1283 L 146.456 18.1283 L 146.456 11.6157 C 146.456 9.42776 146.316 9.1063 145.359 9.1063 C 143.91 9.1063 143.046 10.6009 143.046 13.0307 L 143.046 18.1283 L 144.262 18.1283 L 144.262 18.7941 L 139.054 18.7941 L 139.054 18.1283 L 140.268 18.1283 L 140.268 11.6157 C 140.268 9.6137 140.057 9.1063 139.124 9.1063 C 137.652 9.1063 136.858 10.4938 136.858 13.0307 L 136.858 18.1283 L 138.096 18.1283 L 138.096 18.7941 L 132.561 18.7941 L 132.561 18.1283 L 134.103 18.1283 L 134.103 8.97236" 
sketch:type="MSShapeGroup" />                 <path id="Fill-7" fill="#ffffff" 
d="M 168.681 13.6177 C 168.681 11.6157 168.425 10.4418 167.747 9.6137 C 167.35 9.1063 166.882 8.84158 166.44 8.84158 C 165.225 8.84158 164.641 10.3078 164.641 13.1907 C 164.641 14.497 164.781 15.938 164.992 16.8464 C 165.225 17.7525 165.762 18.2599 166.486 18.2599 C 167.701 18.2599 168.61 16.4454 168.681 13.8848 L 168.681 13.6177 L 168.681 13.6177 Z M 168.588 17.2199 C 167.911 18.4758 167.023 19.0604 165.855 19.0604 C 163.473 19.0604 161.628 16.7133 161.628 13.6429 C 161.628 10.5757 163.497 8.03873 165.762 8.03873 C 166.931 8.03873 167.723 8.54533 168.588 9.88079 L 168.588 1.68764 L 167.07 1.68764 L 167.07 1.02109 L 167.793 1.02109 C 169.523 1.02109 170.27 0.966727 171.366 0.727212 L 171.366 18.1283 L 172.885 18.1283 L 172.885 18.7941 L 168.588 18.7941 L 168.588 17.2199 L 168.588 17.2199 Z" 
sketch:type="MSShapeGroup" />                 <path id="Fill-8" fill="#ffffff" 
d="M 175.021 1.68764 L 173.503 1.68764 L 173.503 1.02109 L 174.203 1.02109 C 175.932 1.02109 176.679 0.966727 177.777 0.727212 L 177.777 18.1283 L 179.318 18.1283 L 179.318 18.7941 L 173.48 18.7941 L 173.48 18.1283 L 175.021 18.1283 L 175.021 1.68764" 
sketch:type="MSShapeGroup" />                 <path id="Fill-9" fill="#ffffff" 
d="M 182.612 2.314 C 183.548 2.314 184.282 3.03727 184.282 3.92442 C 184.282 4.79109 183.548 5.51121 182.612 5.51121 C 181.726 5.51121 180.967 4.79109 180.967 3.92442 C 180.967 3.03727 181.7 2.314 182.612 2.314" 
sketch:type="MSShapeGroup" />                 <path id="Fill-10" fill="#ffffff" 
d="M 181.538 8.97236 L 180.021 8.97236 L 180.021 8.30582 L 180.721 8.30582 C 182.449 8.30582 183.197 8.25224 184.295 8.01273 L 184.295 18.1283 L 185.812 18.1283 L 185.812 18.7941 L 179.997 18.7941 L 179.997 18.1283 L 181.538 18.1283 L 181.538 8.97236" 
sketch:type="MSShapeGroup" />                 <path id="Fill-11" fill="#ffffff" 
d="M 188.078 8.97236 L 186.561 8.97236 L 186.561 8.30582 L 187.261 8.30582 C 188.989 8.30582 189.713 8.25224 190.834 8.01273 L 190.834 9.96036 C 191.698 8.73285 192.959 8.03873 194.338 8.03873 C 196.346 8.03873 197.233 9.0803 197.233 11.4818 L 197.233 18.1283 L 198.774 18.1283 L 198.774 18.7941 L 193.24 18.7941 L 193.24 18.1283 L 194.454 18.1283 L 194.454 11.4818 C 194.454 9.69327 194.198 9.1063 193.31 9.1063 C 191.722 9.1063 190.834 10.4938 190.834 12.9764 L 190.834 18.1283 L 192.072 18.1283 L 192.072 18.7941 L 186.538 18.7941 L 186.538 18.1283 L 188.078 18.1283 L 188.078 8.97236" 
sketch:type="MSShapeGroup" />                 <path id="Fill-12" fill="#ffffff" 
d="M 220.865 8.97236 L 219.346 8.97236 L 219.346 8.30582 L 220.047 8.30582 C 221.775 8.30582 222.499 8.25224 223.62 8.01273 L 223.62 9.96036 C 224.485 8.73285 225.746 8.03873 227.1 8.03873 C 229.131 8.03873 230.018 9.0803 230.018 11.4818 L 230.018 18.1283 L 231.56 18.1283 L 231.56 18.7941 L 226.025 18.7941 L 226.025 18.1283 L 227.24 18.1283 L 227.24 11.4818 C 227.24 9.69327 226.983 9.1063 226.095 9.1063 C 224.507 9.1063 223.62 10.4938 223.62 12.9764 L 223.62 18.1283 L 224.858 18.1283 L 224.858 18.7941 L 219.323 18.7941 L 219.323 18.1283 L 220.865 18.1283 L 220.865 8.97236" 
sketch:type="MSShapeGroup" />                 <path id="Fill-13" fill="#ffffff" 
d="M 129.659 8.03873 C 128.708 8.03873 127.657 8.79588 127.074 10.1857 L 127.074 8.01273 C 125.976 8.25224 125.206 8.30582 123.407 8.30582 L 122.776 8.30582 L 122.776 8.97236 L 124.318 8.97236 L 124.318 18.1283 L 122.753 18.1283 L 122.753 18.7941 L 128.849 18.7941 L 128.849 18.1283 L 127.074 18.1283 L 127.074 13.4838 C 127.074 11.9372 127.21 11.1083 127.84 10.0683 C 128.004 9.8217 128.215 9.49709 128.455 9.27018 C 128.64 9.1063 128.807 9.00073 128.911 9.00073 C 128.975 9.00073 129.022 9.00703 129.067 9.05036 C 129.113 9.0937 129.144 9.23867 129.044 9.36158 L 128.943 9.48448 C 128.789 9.65545 128.657 9.95249 128.657 10.2219 C 128.657 11.0051 129.303 11.5141 130.141 11.5141 C 131.079 11.5141 131.74 10.8522 131.74 9.94697 C 131.74 8.8463 130.851 8.03873 129.659 8.03873" 
sketch:type="MSShapeGroup" />                 <path id="Fill-14" fill="#ffffff" 
d="M 73.8887 16.8464 C 73.6216 17.7525 73.0081 18.2599 72.1798 18.2599 C 70.791 18.2599 69.7454 16.4454 69.6711 13.8848 L 69.6711 13.6177 C 69.6711 11.6157 69.9635 10.4418 70.7379 9.6137 C 71.1913 9.1063 71.7264 8.84158 72.2337 8.84158 C 73.6216 8.84158 74.2882 10.3078 74.2882 13.1907 C 74.2882 14.497 74.1289 15.938 73.8887 16.8464 L 73.8887 16.8464 Z M 72.8006 8.03873 C 71.5483 8.03873 70.6285 8.54533 69.7642 9.88079 L 69.7642 0.727212 C 68.6434 0.966727 67.9433 1.02109 66.1911 1.02109 L 65.4673 1.02109 L 65.4673 1.68764 L 66.9851 1.68764 L 66.9851 18.1283 L 65.4673 18.1283 L 65.4673 18.7941 L 69.7642 18.7941 L 69.7642 17.2199 C 70.4414 18.4758 71.4486 19.0604 72.7001 19.0604 C 75.2554 19.0604 77.2331 16.7133 77.2331 13.6429 C 77.2331 10.5757 75.2301 8.03873 72.8006 8.03873 L 72.8006 8.03873 Z" 
sketch:type="MSShapeGroup" />                 <path id="Fill-15" fill="#ffffff" 
d="M 205.186 13.0047 C 205.186 14.6561 204.813 15.2462 203.785 15.2462 C 202.757 15.2462 202.383 14.6561 202.383 13.0047 L 202.383 11.0027 C 202.383 9.37339 202.757 8.75885 203.785 8.75885 C 204.813 8.75885 205.186 9.37339 205.186 11.0027 L 205.186 13.0047 L 205.186 13.0047 Z M 206.78 20.9568 C 207.62 20.9568 208.141 21.3838 208.141 22.3175 C 208.141 23.9988 206.389 25.2799 204.077 25.2799 C 202.092 25.2799 200.785 24.2375 200.785 22.6909 C 200.785 22.0244 200.995 21.5178 201.508 20.9568 L 206.78 20.9568 L 206.78 20.9568 Z M 207.55 8.8857 C 207.628 8.8857 207.68 8.90933 207.758 9.00309 C 208.041 9.28279 208.298 9.40018 208.633 9.40018 C 209.176 9.40018 209.587 8.97945 209.587 8.46576 C 209.587 7.85752 209.098 7.41315 208.428 7.41315 C 207.68 7.41315 207.192 7.83309 206.804 8.76594 C 206.754 8.89752 206.718 9.01018 206.692 9.11024 C 205.844 8.36727 204.955 8.03873 203.832 8.03873 C 201.45 8.03873 199.675 9.74685 199.675 12.0167 C 199.675 13.2442 200.142 14.2039 201.122 15.0579 L 201.235 15.1367 C 200.056 15.6276 199.22 16.8677 199.22 18.1795 C 199.22 19.4614 199.851 20.3706 200.995 20.7425 C 199.851 21.0899 199.267 21.8108 199.267 22.9044 C 199.267 24.6929 201.251 26 203.961 26 C 207.183 26 209.239 24.1579 209.239 21.2751 C 209.239 20.2075 208.997 19.4385 208.513 18.8823 C 207.8 18.0621 206.946 17.8525 205.357 17.8525 L 203.727 17.8612 L 201.931 17.8612 C 200.833 17.8612 200.41 17.7013 200.41 17.1127 C 200.41 16.4659 200.98 15.8182 201.797 15.496 C 202.487 15.8214 203.109 15.9672 203.832 15.9672 C 206.189 15.9672 207.895 14.2842 207.895 11.9624 C 207.895 11.2682 207.754 10.7096 207.475 10.0683 C 207.455 10.0281 207.423 9.96982 207.402 9.91782 C 207.233 9.53412 207.262 9.33242 207.262 9.33242 C 207.262 9.07479 207.37 8.8857 207.55 8.8857 L 207.55 8.8857 Z" 
sketch:type="MSShapeGroup" />                 <path id="Fill-16" fill="#ffffff" 
d="M 110.525 0.832788 C 109.171 0.832788 107.793 1.716 106.975 3.10267 C 106.368 4.19624 106.088 5.47812 106.088 7.42576 L 106.088 8.23727 L 104.57 8.23727 L 104.57 8.97236 L 106.088 8.97236 L 106.088 18.1283 L 104.57 18.1283 L 104.57 18.7941 L 110.969 18.7941 L 110.969 18.1283 L 108.867 18.1283 L 108.867 8.97236 L 110.969 8.97236 L 110.969 8.23727 L 108.843 8.23727 L 108.843 3.98273 C 108.843 2.27382 109.217 1.5537 110.104 1.5537 C 110.465 1.5537 110.706 1.67661 110.706 1.87515 C 110.706 1.97442 110.675 1.96418 110.501 2.13279 C 110.275 2.37388 110.175 2.59055 110.175 2.85527 C 110.175 3.45721 110.725 3.93861 111.424 3.93861 C 112.198 3.93861 112.747 3.38473 112.747 2.61418 C 112.747 1.62697 111.812 0.832788 110.525 0.832788" 
sketch:type="MSShapeGroup" />                 <path id="Fill-17" fill="#ffffff" 
d="M 81.5848 12.2822 L 81.5848 12.2846 L 81.5848 12.2822 L 81.5848 12.2822 Z M 81.5872 12.2137 L 81.5872 12.2161 L 81.5872 12.2137 L 81.5872 12.2137 Z M 83.373 8.78642 C 84.622 8.80533 84.9145 9.31667 84.9145 11.5361 L 84.9145 12.1475 L 81.5905 12.1475 C 81.6068 11.7016 81.6395 11.1225 81.6926 10.909 C 81.8086 9.32533 82.3159 8.77067 83.373 8.78642 L 83.373 8.78642 Z M 87.8725 12.9512 L 87.8725 12.6037 C 87.8725 10.1227 85.8735 8.06552 83.4326 8.06552 C 80.6527 8.06552 78.505 10.4552 78.505 13.5633 C 78.505 15.8576 79.723 17.7698 81.4802 18.6223 C 82.1207 18.9327 82.8305 19.1132 83.5829 19.1147 C 85.4324 19.1187 86.8374 18.1007 87.8725 15.938 L 87.3063 15.6197 C 86.4543 17.383 85.3147 18.304 84.0281 18.3402 C 83.9938 18.3418 83.957 18.3426 83.9195 18.3434 C 83.5796 18.345 83.2039 18.3127 82.8804 18.1898 C 82.7415 18.1362 82.6108 18.0637 82.4907 17.9731 C 82.3486 17.8612 82.2195 17.7249 82.1108 17.5642 C 81.7808 17.0781 81.6403 16.3619 81.5929 15.1336 C 81.5831 14.9027 81.5758 13.8714 81.5758 13.5507 C 81.5758 13.4428 81.5766 13.0481 81.5774 12.9512 L 87.8725 12.9512 L 87.8725 12.9512 Z" 
sketch:type="MSShapeGroup" />                 <path id="Fill-18" fill="#ffffff" 
d="M 155.881 8.78721 C 157.131 8.80612 157.423 9.31667 157.423 11.5361 L 157.423 12.1475 L 154.099 12.1475 C 154.116 11.7016 154.148 11.1233 154.202 10.9098 C 154.317 9.32612 154.824 8.77067 155.881 8.78721 L 155.881 8.78721 Z M 160.381 12.9512 L 160.381 12.6037 C 160.381 10.1235 158.382 8.06552 155.942 8.06552 C 153.162 8.06552 151.013 10.4552 151.013 13.5633 C 151.013 15.8584 152.232 17.7698 153.989 18.6223 C 154.629 18.9327 155.34 19.1132 156.092 19.1147 C 157.941 19.1195 159.346 18.1007 160.381 15.9388 L 159.815 15.6197 C 158.962 17.383 157.823 18.3048 156.537 18.341 C 156.502 18.3418 156.466 18.3434 156.428 18.3434 C 156.089 18.3458 155.712 18.3127 155.389 18.1898 C 155.25 18.137 155.12 18.0637 155 17.9731 C 154.857 17.862 154.728 17.7257 154.619 17.565 C 154.29 17.0788 154.148 16.3619 154.101 15.1336 C 154.092 14.9027 154.085 13.8714 154.085 13.5507 C 154.085 13.4428 154.085 13.0481 154.086 12.9512 L 160.381 12.9512 L 160.381 12.9512 Z" 
sketch:type="MSShapeGroup" />                 <g id="Group-22"><mask id="mask-2" 
fill="white" sketch:name="Clip 20"><use xmlns:xlink="http://www.w3.org/1999/xlink" 
xlink:href="#path-1" />                     </mask>                     <g id="Clip-20" 
/>                     <path id="Fill-19" fill="#ffffff" mask="url(&quot;#mask-2&quot;)" 
d="M 214.366 8.78721 C 215.615 8.80612 215.908 9.31667 215.908 11.5361 L 215.908 12.1475 L 212.583 12.1475 C 212.6 11.7016 212.633 11.1233 212.685 10.9098 C 212.801 9.32612 213.309 8.77067 214.366 8.78721 L 214.366 8.78721 Z M 218.866 12.9512 L 218.866 12.6037 C 218.866 10.1235 216.867 8.06552 214.425 8.06552 C 211.646 8.06552 209.498 10.4552 209.498 13.5633 C 209.498 15.8584 210.716 17.7698 212.474 18.6223 C 213.114 18.9327 213.824 19.1132 214.576 19.1147 C 216.426 19.1195 217.83 18.1007 218.866 15.9388 L 218.3 15.6197 C 217.448 17.383 216.307 18.3048 215.022 18.341 C 214.987 18.3418 214.95 18.3434 214.913 18.3434 C 214.573 18.3458 214.196 18.3127 213.875 18.1898 C 213.735 18.137 213.603 18.0637 213.484 17.9731 C 213.341 17.862 213.213 17.7257 213.103 17.565 C 212.774 17.0788 212.634 16.3619 212.585 15.1336 C 212.577 14.9027 212.569 13.8714 212.569 13.5507 C 212.569 13.4428 212.57 13.0481 212.571 12.9512 L 218.866 12.9512 L 218.866 12.9512 Z" 
sketch:type="MSShapeGroup" />                     <path id="Fill-21" fill="#ffffff" 
mask="url(&quot;#mask-2&quot;)" d="M 19.9397 18.5601 L 12.9863 8.92982 C 11.7021 7.18467 9.87634 5.92012 7.77935 5.70109 C 4.91775 5.4403 2.34777 6.682 0.882254 9.0543 C -0.379859 11.0839 -0.26631 14.0392 1.08566 15.9845 C 2.30203 17.8021 4.26423 18.7098 6.40532 18.7941 L 19.8123 18.7941 C 19.9757 18.7941 20.0329 18.6893 19.9397 18.5601" 
sketch:type="MSShapeGroup" />                 </g>                 <path id="Fill-23" 
fill="#ffffff" d="M 38.1019 18.5553 C 37.4051 18.3158 36.1552 17.9684 34.9528 17.2207 C 34.1963 16.7511 33.4578 16.0893 32.8664 15.2659 L 24.302 3.33036 C 23.1975 1.90982 21.6332 1.0203 19.0158 1.0203 L 8.59789 1.0203 C 8.27276 1.0203 8.27358 1.1637 8.54479 1.25824 C 9.4393 1.57182 12.4945 2.80091 14.2492 5.23309 L 22.4313 16.5715 C 23.5807 18.0345 25.203 18.7421 27.0296 18.7941 L 38.0455 18.7941 C 38.3715 18.7941 38.3707 18.6499 38.1019 18.5553" 
sketch:type="MSShapeGroup" />                 <path id="Fill-24" fill="#ffffff" 
d="M 45.0823 13.1978 L 47.3623 6.30382 L 49.6652 13.1978 L 45.0823 13.1978 L 45.0823 13.1978 Z M 63.5035 8.03873 C 62.4301 8.03873 61.4016 8.89279 60.8183 10.2826 L 60.8183 8.01273 C 59.7204 8.25224 58.9501 8.30582 57.1521 8.30582 L 56.5214 8.30582 L 56.5214 8.97236 L 58.0621 8.97236 L 58.0621 18.1283 L 54.7757 18.1283 L 49.1783 1.02109 L 48.1923 1.02109 L 43.063 16.5447 L 42.8636 17.1608 C 42.6619 17.7525 42.4519 18.033 41.6799 18.1259 C 41.6734 18.1267 41.4937 18.1283 41.4561 18.1283 L 40.7193 18.1283 L 40.7193 18.7941 L 45.7694 18.7941 L 45.7694 18.1283 L 44.4754 18.1283 C 43.8284 18.1283 43.6299 18.0464 43.6299 17.7525 C 43.6299 17.6217 43.6797 17.4878 43.8284 17.0064 L 44.8487 14.0439 L 49.9748 14.0439 L 51.2924 18.1283 L 49.1783 18.1283 L 49.1783 18.7941 L 62.5934 18.7941 L 62.5934 18.1283 L 60.8183 18.1283 L 60.8183 13.4838 C 60.8183 11.9372 61.0054 11.1083 61.636 10.0683 C 61.7994 9.8217 62.0616 9.49709 62.3018 9.27018 C 62.4848 9.1063 62.6523 9.00073 62.756 9.00073 C 62.8197 9.00073 62.8679 9.00703 62.9128 9.05036 C 62.9586 9.0937 62.9888 9.23867 62.8892 9.36158 L 62.7879 9.48448 C 62.6359 9.65545 62.5036 9.95249 62.5036 10.2219 C 62.5036 11.0051 63.1489 11.5141 63.9863 11.5141 C 64.9249 11.5141 65.5849 10.8522 65.5849 9.94697 C 65.5849 8.8463 64.6961 8.03873 63.5035 8.03873 L 63.5035 8.03873 Z" 
sketch:type="MSShapeGroup" />             </g>         </g>     </g> </svg>
